<svg width="512" height="512" viewBox="0 0 512 512" fill="none" xmlns="http://www.w3.org/2000/svg">
<g clip-path="url(#clip0_824_1965)">
<path d="M20 10H492C497.523 10 502 14.4772 502 20V349.257V380.343V411.429V492C502 497.523 497.523 502 492 502H20C14.4772 502 10 497.523 10 492V158.476V129.219V96.3048V20C10 14.4772 14.4772 10 20 10Z" fill="#43447C" stroke="#43447C" stroke-width="20"/>
<path d="M35 55C35 43.9543 43.9543 35 55 35H457C468.046 35 477 43.9543 477 55V336.507V363.343V390.179V457C477 468.046 468.046 477 457 477H55C43.9543 477 35 468.046 35 457V171.81V146.552V118.138V55Z" fill="#43447C"/>
<path d="M79.3935 114.823L80.6632 147.314C87.2658 146.553 96.154 145.537 101.487 145.283C112.915 144.522 135.008 143.76 145.166 143.507C137.547 159.244 127.136 184.12 118.247 204.174C109.105 224.227 99.9632 247.58 91.5829 260.018C86.7579 266.364 83.4566 268.648 78.3777 268.648C72.2829 268.648 67.4579 264.333 67.4579 255.956C67.4579 237.426 88.7895 217.373 125.866 217.373C178.179 217.373 222.874 246.311 254.109 273.979L268.838 238.695C242.174 220.419 190.369 188.943 131.199 188.943C76.854 188.943 38 220.165 38 260.779C38 286.671 54.7605 301.901 76.854 301.901C94.3764 301.901 106.312 295.047 116.47 279.563C126.882 263.571 139.071 233.365 149.229 210.012C160.657 183.613 174.37 150.868 183.004 136.399C185.036 133.099 188.083 129.799 191.384 125.992L171.322 110C166.751 111.777 160.149 113.3 153.8 113.808C142.119 114.823 115.2 115.838 100.471 115.838C95.1382 115.838 86.25 115.331 79.3935 114.823ZM246.491 174.728L213.224 170.921C214.24 178.79 213.986 188.943 213.478 198.843C211.192 228.542 203.574 276.009 140.849 302.916L168.021 325C228.715 293.524 242.936 246.818 246.491 174.728Z" fill="white"/>
<path d="M305.902 195.331L306.664 228.329C312.251 227.568 321.393 226.553 327.742 226.045C339.931 225.283 375.23 223.507 388.943 222.999C368.881 243.813 306.41 295.089 272.381 320.98L296.253 346.11C323.679 318.442 351.105 293.312 390.721 293.312C419.671 293.312 437.955 308.288 437.955 328.341C437.955 361.848 396.308 376.57 326.218 367.432L335.107 400.685C429.067 408.046 473 378.601 473 328.341C473 292.804 442.272 266.405 397.578 266.405C391.229 266.405 381.833 267.42 373.707 269.959C395.546 252.952 420.179 233.66 434.654 222.745C438.209 220.46 444.05 216.399 448.875 214.115L431.861 191.777C427.036 192.792 419.417 194.061 413.576 194.569C396.816 195.584 340.185 196.346 326.726 196.346C318.092 196.346 310.22 195.838 305.902 195.331Z" fill="white"/>
</g>
<defs>
<clipPath id="clip0_824_1965">
<rect width="512" height="512" fill="white"/>
</clipPath>
</defs>
</svg>
